<svg xmlns="http://www.w3.org/2000/svg" viewBox="0 0 225 225"><defs><style>.cls-1{fill:none;}.cls-2{fill:#017caa;}.cls-3{fill:#029ad1;}</style></defs><title>Asset 2</title><g id="Layer_2" data-name="Layer 2"><g id="Layer_1-2" data-name="Layer 1"><path class="cls-1" d="M0,225V0H225V225Zm150.14-43.52H56.21v12.29H224.28L136.42,43.41c-.65.24-.88.25-.92.35q-16.23,36.93-32.35,73.92a5.1,5.1,0,0,0,.57,4.3c11.06,14.3,22.28,28.47,33.43,42.69C141.29,170,145.36,175.29,150.14,181.48ZM125.75,31.35C103.41,42.66,82.46,53.23,61.58,64a10,10,0,0,0-3.48,3.91q-26,44.31-51.88,88.68c-1.77,3-3.35,6.14-5.29,9.73,21.51,0,42.16.08,62.8-.17,1.42,0,3.42-2.16,4.13-3.76Q89.92,113,111.72,63.57C116.25,53.34,120.66,43.05,125.75,31.35Z"/><path class="cls-2" d="M150.14,181.48c-4.78-6.19-8.85-11.53-13-16.81C126,150.45,114.78,136.28,103.72,122a5.1,5.1,0,0,1-.57-4.3q16-37,32.35-73.92c0-.1.27-.11.92-.35l87.86,150.36H56.21V181.48Z"/><path class="cls-3" d="M125.75,31.35c-5.09,11.7-9.5,22-14,32.22Q89.87,113,67.86,162.34c-.71,1.6-2.71,3.74-4.13,3.76-20.64.25-41.29.17-62.8.17,1.94-3.59,3.52-6.71,5.29-9.73Q32.11,112.17,58.1,67.86A10,10,0,0,1,61.58,64C82.46,53.23,103.41,42.66,125.75,31.35Z"/></g></g></svg>