<svg xmlns="http://www.w3.org/2000/svg" viewBox="0 0 1200 1200"><defs><style>.cls-1{fill:#6d429c;}.cls-2{fill:#5c2d91;}.cls-3{fill:#6c429b;}.cls-4{fill:#6e439c;}.cls-5{fill:#6d439c;}</style></defs><title>Asset 1</title><g id="Layer_2" data-name="Layer 2"><g id="Layer_1-2" data-name="Layer 1"><g id="Layer_1-2-2" data-name="Layer 1-2"><path class="cls-1" d="M631,1200H568a28.44,28.44,0,0,0-4.07-1c-17.06-1.78-34.2-2.92-51.16-5.35A582.46,582.46,0,0,1,359.7,1149.9q-147-64.87-242.64-194Q14.64,817,1.69,644.55C1.36,640.35.57,636.18,0,632V569a23.25,23.25,0,0,0,1-4.11,590.16,590.16,0,0,1,11.34-86.52C32.35,382.69,73,296.72,135,221.15c15.26-18.6,32.59-35.5,49-53.18,1.08,1.25,2.09,2.59,3.26,3.76Q326.54,311.07,465.9,450.34a36.75,36.75,0,0,0,5.18,3.67q.1,27.24.22,54.47c.22,37.82.4,75.65.77,113.47.06,6.53.94,13.06,1.45,19.59a48.49,48.49,0,0,1-6.14-8.45q-88.65-139-177.27-278a6.2,6.2,0,0,0-6.05-3.21c-14.66.12-29.33.05-44,.08a34.9,34.9,0,0,0-3.69.35V693.56h39.74c-.58-98,.68-195.67-.72-292.8,3.61,6.59,7.1,13.95,11.47,20.75Q373.31,556,459.9,690.35c1.79,2.79,3.74,3.58,6.87,3.54,13-.16,26-.06,39-.08,1.62,0,3.25-.13,5.46-.23V502.93c0-2,.18-4,.28-6a63.92,63.92,0,0,1,5,4q39,38.9,77.93,77.83a46.45,46.45,0,0,0,5.45,4.13V693.82h7.35L711,694a60.13,60.13,0,0,0,4.79,6.22Q871.45,856,1027.2,1011.69c1.53,1.52,3.22,2.88,4.83,4.32a38.5,38.5,0,0,1-3.27,3.72c-18.65,16.83-36.49,34.69-56.15,50.25Q828.53,1184,645,1198.26C640.34,1198.62,635.68,1199.41,631,1200ZM741.15,881.21h78.56c0-5.06.13-9.52,0-14-.47-13.71-4-26.54-13.5-36.72-18.08-19.38-53.2-17.1-70.73,4-12,14.49-15.68,31.36-14.3,49.56,1.24,16.34,6.84,30.74,20,41.49,17.83,14.56,51.69,11.42,68.5,0a3.68,3.68,0,0,0,1.69-2.26c.15-4.88.08-9.77.08-15.07-17.62,10.17-26.1,12.63-39.77,11.77C752.8,918.88,737.52,899.81,741.15,881.21ZM489.93,908.78c-15.18,8.64-30.73,11.48-47,10.3-16.76-1.22-30.12-8.73-39.85-22.56-10.44-14.85-12.47-31.61-11.17-49.11,2.24-30,25.63-63.08,69.07-57.64,9.74,1.22,19.21,4.6,29.1,7.06,0-4-.2-8.77.07-13.53.16-3-1.12-4.32-3.72-4.87-8-1.68-15.85-4-23.89-4.89-35.74-4.06-67.15,12.6-81.93,43.81-11.4,24.07-12,49.06-2.32,73.73,9.58,24.31,27.82,39.21,53.71,43.41a97,97,0,0,0,47.35-4c10.5-3.6,10.51-3.59,10.58-14.81C489.94,913.72,489.93,911.73,489.93,908.78Zm132.09-34c0-3.16.19-6.33,0-9.48-1.54-22.42-16.08-41.47-36.81-46.47a76.8,76.8,0,0,0-25.2-1.47c-16.1,1.63-29.36,9.07-38.51,22.94-10.68,16.19-12.16,34.17-8.21,52.3,4.83,22.18,18.55,37.24,41.32,41.67,22.25,4.33,41.69-1.49,55.89-20.15A56.94,56.94,0,0,0,622,874.74Zm47.74-54.14H651.39V932.48h18.45v-5.84c0-17.82.06-35.64-.06-53.46a48.94,48.94,0,0,1,7.8-27.44c4.57-7.11,11.24-10.92,19.69-10.65,4.17.13,8.29,1.44,12.67,2.27,0-4.46-.22-9,.07-13.43.22-3.45-1.24-4.57-4.42-5.07-13.92-2.2-25.37,3.65-32.58,16.91-.8,1.48-1.56,3-2.34,4.48l-.91-.35ZM165.26,671.81A26.88,26.88,0,0,0,138.7,645c-14.41,0-26.5,12.33-26.45,27a26.51,26.51,0,0,0,53-.15Z"/><path class="cls-2" d="M1032,1016c-1.61-1.44-3.3-2.8-4.83-4.32Q871.47,856,715.79,700.23A60.25,60.25,0,0,1,711,694h70.58V656.18H700c-10,0-20-.17-30-.26a30.24,30.24,0,0,0-3.06-4.39q-10.62-10.81-21.42-21.43a33.59,33.59,0,0,0-4.37-3.11q-.06-44-.11-88c0-.28.31-.55.76-1.32h122v-36.1H641.3V387.9H772.82V352.29H600V524c0,19.66-.08,39.32-.13,59a46.45,46.45,0,0,1-5.45-4.13Q555.41,540,516.48,501a63.92,63.92,0,0,0-5-4c-.1-2.15-.27-4.31-.28-6.46V352.37H471.3v6.81q-.1,47.43-.22,94.85a36.75,36.75,0,0,1-5.18-3.67Q326.54,311.08,187.25,171.73c-1.17-1.17-2.18-2.51-3.26-3.76a22.15,22.15,0,0,1,1.62-1.87,595.59,595.59,0,0,1,104.56-80Q417.52,9.62,565.9,1A13.52,13.52,0,0,0,569,0h61a18.8,18.8,0,0,0,3.61.94,578,578,0,0,1,93,12.44c108,23.63,203,72.73,283.32,148.75Q1178.76,322,1198.21,554.4c.47,5.54,1.19,11.07,1.79,16.6v61a28.6,28.6,0,0,0-1.06,4.55,603.45,603.45,0,0,1-11.29,85.1c-18,86.16-52.84,164.89-105.68,235.3C1066.52,977.54,1048.74,996.37,1032,1016ZM910.8,388.16V693.58h39.85V388h99V352.21h-237v36Z"/><path class="cls-3" d="M670,655.91H641.16V627a33.59,33.59,0,0,1,4.37,3.11q10.8,10.62,21.42,21.43A31.37,31.37,0,0,1,670,655.91Z"/><path class="cls-4" d="M740.85,865.76c.64-18.49,16.7-33.52,34.41-32.56,15.62.86,26.66,14.79,25.46,32.56Z"/><path class="cls-5" d="M603.94,877.09a52.72,52.72,0,0,1-5.08,25.08c-10.8,23.88-46.36,23.24-59.67,5.09-12.49-17-12.2-45.19.7-61.86,13.82-17.85,47.73-17.29,58.37,5.06A54.22,54.22,0,0,1,603.94,877.09Z"/></g></g></g></svg>