<svg xmlns="http://www.w3.org/2000/svg" viewBox="0 0 451.9 451.79"><defs><style>.cls-1{fill:none;}.cls-2{fill:#b82121;}.cls-3{fill:#cfd8dc;}.cls-4{fill:#cfd8db;}.cls-5{fill:#fdfbfb;}.cls-6{fill:none;}.cls-7{fill:#fdfafa;}</style></defs><title>Asset 1</title><g id="Layer_2" data-name="Layer 2"><g id="Layer_1-2" data-name="Layer 1"><path class="cls-1" d="M451.9,451.79H0V0H451.9Zm-229-353.86c-11.59-21.74-15.34-45.38-16.24-70.18C196.46,30.24,186.82,32,177.59,35c-15.1,4.89-30.19,10-44.78,16.2-7.38,3.13-15.15,7.2-18.06,16-3.62,4.91-2.57,10.07.54,14.31a172,172,0,0,0,17.16,20.67c24.14,24,31.48,53.09,26.27,85.66-2.86,17.88-12.6,33.08-24.74,46-16.38,17.48-33.93,33.84-50.93,50.73a48.36,48.36,0,0,0-4,5.18c-4.73,5.18-10.15,9.89-14,15.63-13.51,19.89-11.53,38.92,5.7,55.6,13.68,13.24,30.83,20.71,48.53,26.66,35.19,11.83,71.6,16.49,108.6,17.21,4.07.08,6.66-1.28,8.43-4.75,6.2-12.12,13-23.95,18.49-36.39a225.58,225.58,0,0,0,17.87-72.64,282.42,282.42,0,0,0,0-43.24c-.88-12-4-23.79-6.08-35.67,45-12.34,90.83-20.5,137.6-25.91-.9-1.57-1.29-2.31-1.73-3-15.85-24.86-39.31-40.81-64.64-54.24-23.83-12.63-49.55-19.9-76.08-24.38C248.73,102.5,235.82,100.18,222.89,97.93Z"/><path class="cls-2" d="M79.07,289.8a48.36,48.36,0,0,1,4-5.18c17-16.89,34.55-33.25,50.93-50.73,12.14-13,21.88-28.16,24.74-46,5.21-32.57-2.13-61.71-26.27-85.66a172,172,0,0,1-17.16-20.67c-3.11-4.24-4.16-9.4-.54-14.31L121.81,75c9.17,8.12,20.72,9.76,32.1,11.86l30.4,5.05,26.35,4.31,0-.33,1.08.62,11.11,1.4c12.93,2.25,25.84,4.57,38.78,6.75,26.53,4.48,52.25,11.75,76.08,24.38,25.33,13.43,48.79,29.38,64.64,54.24.44.69.83,1.43,1.73,3-46.77,5.41-92.59,13.57-137.6,25.91l-8.61,2.52L229,223l-20.12,6.62-29.54,11.09-7.46,2.95-4.18,1.63-11.86,5.43-26.91,14.07-1.28.76h-.07l-11.75,6.25-7,3.62-2.29,1.3-1.72.77Zm60.31-45.3a158,158,0,0,0,29.36-29.16c-13.25,6.1-22,16.86-30.05,28.29l-.57.92ZM261.73,120.67q-18.63,10.49-37.25,21a24,24,0,0,0-3,2.42l26.8,12.77c4.66-12.19,9.19-24.05,13.71-35.92l.6-.52-.32-.32ZM261,151.93l9.31-3.18,52.08-17.61L274,115.86c-1.94,6-3.35,10.92-5.13,15.7-2.52,6.8-5.32,13.5-8,20.24l-.65.45.36.28Zm79.48-10.55L304.8,192.49l82.1-14.22C373.42,162.67,357.23,150.76,340.48,141.38Zm-48.46,49c10.88-9.43,33.82-41.29,35.69-50.94l-68.73,23Zm-8.27,7.22.78-1.53L251.87,169.3C241,185.2,230.82,200,220.45,215.12Zm-83.43-92.19L169.44,128l37.43,10.31C207.58,127.12,206.73,116.38,200.32,105.42ZM138.82,94l22,29.53,25.84-20.63Zm31.74,77.25c9.77-8.06,19.63-16.18,30.46-25.09l-35.2-9C167.5,149.24,169,160.16,170.56,171.2Zm47-36.79,36.8-21.68-41.67-6.45C214.35,116,216,125.22,217.54,134.41Zm-19.19,60.2,11.92,17.85c8.67-12.2,17.42-24.53,26.17-36.86l-1.23-1.27Zm-6.64,8.33-27.35,32.73a4.11,4.11,0,0,0,1.4,0c11-4.25,22-8.43,32.8-13,1.16-.48,2.28-3.06,2.07-4.48A24.39,24.39,0,0,0,191.71,202.94Zm46.76-40.62-23.23-10.58c-3.38,9.63-6.57,18.72-9.8,27.9Zm-34.69-3.54-1.62-1.47-28.5,23.78,16.07,7.83C194.47,178.73,199.13,168.75,203.78,158.78Zm-23.09,36-12.12-5.26-5.41,17Z"/><path class="cls-3" d="M208.83,229.59,229,223l31.8,14.53,1.31-1.19q-2.08-10.78-4.15-21.58l8.61-2.52c2.11,11.88,5.2,23.7,6.08,35.67a282.42,282.42,0,0,1,0,43.24,225.58,225.58,0,0,1-17.87,72.64c-5.45,12.44-12.29,24.27-18.49,36.39-1.77,3.47-4.36,4.83-8.43,4.75-37-.72-73.41-5.38-108.6-17.21-17.7-5.95-34.85-13.42-48.53-26.66-17.23-16.68-19.21-35.71-5.7-55.6,3.9-5.74,9.32-10.45,14-15.63l25.69-12.35a19.55,19.55,0,0,1-2.55,3.74c-7.56,6.95-15.47,13.55-22.74,20.79-3.75,3.73-6.41,8.55-10.18,13.74,19.11.63,36.23-2.2,53.37-6.38-5.23-10.94-8.4-21.71-5.92-33.5.26-1.24-.61-2.71-1-4.08l11.75-6.25a65.68,65.68,0,0,1-1.16,8.21c-2.69,10.1-1,19.52,3.64,28.78.7-.36,1.28-.48,1.52-.82a191.14,191.14,0,0,0,24.83-48c.29-.84-.36-2-.57-3l11.86-5.43c-2.43,8.2-4,16.77-7.49,24.52-5.06,11.33-11.44,22.07-17.25,33.06l-.23.41.21-.43a28.1,28.1,0,0,0,5.32-1c11-4.28,22-8.59,32.85-13.12,5.4-2.24,10.6-5,15.87-7.46-5.42-6.31-10.87-11.57-15-17.74s-6.82-13.21-10.14-19.87l7.46-2.95c2.18,4,4.39,8,6.52,12a55.36,55.36,0,0,0,15.78,18.64C204.12,256.74,206.47,243.16,208.83,229.59Zm34,137.23a29.3,29.3,0,0,0-5.26,1.29c-17.94,8.09-36.83,13.1-56,17.29-5.6,1.23-11.24,2.29-16.86,3.43a8.81,8.81,0,0,0,3.86,1.15c18.47,3.27,37.05,5.24,55.83,4.82,1.76,0,4.44-.66,5.11-1.88,4.67-8.56,8.92-17.36,13.31-26.08a1.29,1.29,0,0,0,.33-.17c0-.05,0-.17.06-.26Zm-55-35a22.05,22.05,0,0,0,4.26-1.13c13.6-6.59,27.21-13.18,40.72-20,5.34-2.68,10.42-5.88,14.72-8.33L206,288.76c-.79,2.08-1.82,5-3,7.88-5,11.74-10,23.46-15.06,35.19a1.29,1.29,0,0,0-.33.17c-.06.05-.05.17-.06.26Zm-70-11a4.1,4.1,0,0,0-.5,0c-16,2.38-32.09,4.94-48.43,4.25-1,0-2.89,2.57-2.94,4-.56,13.92,7,23.2,18.87,31.62l33-39.88.23-.39ZM191,342.49c4.47,1.3,8.21,2.76,12.1,3.45,13.81,2.44,27.67,4.64,41.53,6.88,3,.48,4.93-.49,5.84-3.81,1.95-7.18,4.53-14.2,6.41-21.41,1.73-6.63,2.88-13.4,4.52-21.19Zm-27,.45-33.65-21.63L98.16,360.12C121.73,358.39,142.93,350.62,164,342.94Zm66.12,18.19c-4.58-.76-8.06-1.07-11.4-1.93-12-3.08-24.06-6.18-36-9.65-3.67-1.08-5.68-.51-7.86,2.68-4,5.89-8.46,11.48-12.89,17.06-3,3.78-6.27,7.35-10.2,11.92C178.83,376.73,204.38,371.49,230.09,361.13Zm33-107c-15.34,9.24-30.57,18.4-45.83,27.6,7.75,6.45,34.89,11.63,45.83,10.32ZM140.07,315c.66.83,1.17,2,2.05,2.51q14.44,8.72,29,17.25c2.6,1.52,3.9-.21,5-2.35,4.06-8.2,8.31-16.3,12.19-24.58,2-4.22,3.35-8.73,5.22-13.71Zm117.74-68.62-38.91-17c-2.92,15.49-5.61,29.79-8.56,45.42ZM160.62,355.45,101,371.14c11.11,3.9,21.67,7.65,32.29,11.26a4,4,0,0,0,3.12-.69C146,374.43,153.41,365.15,160.62,355.45Z"/><path class="cls-4" d="M184.31,91.93l-30.4-5.05c-6-7.69-11.95-15.42-18.1-23-.77-1-3.14-1.84-3.91-1.37-4.76,2.95-9.76,5.91-10.09,12.5l-7.06-7.81c2.91-8.81,10.68-12.88,18.06-16C147.4,45,162.49,39.89,177.59,35c9.23-3,18.87-4.76,29.06-7.25.9,24.8,4.65,48.44,16.24,70.18l-11.11-1.4-1.08-.62,0,.32c-2.07-6.12-4.15-12.25-6.12-18.06ZM151.05,52.59l.25,2.14L200.77,64c-1.22-8.63-2.29-16.25-3.52-25Zm-2,11.32-1.15,1.15c6.83,7.59,13.63,15.22,20.55,22.72a3.41,3.41,0,0,0,3.09.61A91.35,91.35,0,0,0,195,72.58Z"/><path class="cls-5" d="M340.48,141.38c16.75,9.38,32.94,21.29,46.42,36.89l-82.1,14.22Z"/><path class="cls-5" d="M292,190.39l-33-27.91,68.73-23C325.84,149.1,302.9,181,292,190.39Z"/><path class="cls-6" d="M142.91,302.84c5.81-11,12.19-21.73,17.25-33.06,3.45-7.75,5.06-16.32,7.49-24.52l4.18-1.63c3.32,6.66,6,13.72,10.14,19.87s9.54,11.43,15,17.74c-5.27,2.5-10.47,5.22-15.87,7.46-10.89,4.53-21.86,8.84-32.85,13.12a28.1,28.1,0,0,1-5.32,1Z"/><path class="cls-7" d="M283.75,197.61l-63.3,17.51C230.82,200,241,185.2,251.87,169.3l32.66,26.78Z"/><path class="cls-6" d="M115.78,271.76c.35,1.37,1.22,2.84,1,4.08-2.48,11.79.69,22.56,5.92,33.5-17.14,4.18-34.26,7-53.37,6.38,3.77-5.19,6.43-10,10.18-13.74,7.27-7.24,15.18-13.84,22.74-20.79a19.55,19.55,0,0,0,2.55-3.74l1.72-.77,2.29-1.3Z"/></g></g></svg>